PathFileType	4	(X/Y/Z)	HSS_squat2.trc
DataRate	CameraRate	NumFrames	NumMarkers	Units	OrigDataRate	OrigDataStartFrame	OrigNumFrames
120.0	120.0	4	44	mm	120.0	243	970
Frame#	Time		R.Shoulder		Offset		L.Shoulder		R.Elbow		R.Wrist.Radial		R.Wrist		R.Hand		L.Elbow		L.Wrist.Radial		L.Wrist		L.Hand		R.Hip		V.Sacral		L.PSIS		L.Hip		R.Thigh.Upper		R.Thigh.Front		R.Thigh.Rear		X.Shell.Lower.Thigh.Right		R.Knee.Lateral		R.Shank.Upper		R.Shank.Front		R.Shank.Rear		X.Shell.Lower.Shank.Right		R.Ankle.Lateral		R.Heel		R.Toe		L.Thigh.Upper		L.Thigh.Front		L.Thigh.Rear		X.Shell.Lower.Thigh.Left		L.Knee.Lateral		L.Shank.Upper		L.Shank.Front		L.Shank.Rear		X.Shell.Lower.Shank.Left		L.Ankle.Lateral		L.Heel		L.Toe		R.Troc		L.Troc		R.PSIS		L.ASIS		R.ASIS
			X1	Y1	Z1	X2	Y2	Z2	X3	Y3	Z3	X4	Y4	Z4	X5	Y5	Z5	X6	Y6	Z6	X7	Y7	Z7	X8	Y8	Z8	X9	Y9	Z9	X10	Y10	Z10	X11	Y11	Z11	X12	Y12	Z12	X13	Y13	Z13	X14	Y14	Z14	X15	Y15	Z15	X16	Y16	Z16	X17	Y17	Z17	X18	Y18	Z18	X19	Y19	Z19	X20	Y20	Z20	X21	Y21	Z21	X22	Y22	Z22	X23	Y23	Z23	X24	Y24	Z24	X25	Y25	Z25	X26	Y26	Z26	X27	Y27	Z27	X28	Y28	Z28	X29	Y29	Z29	X30	Y30	Z30	X31	Y31	Z31	X32	Y32	Z32	X33	Y33	Z33	X34	Y34	Z34	X35	Y35	Z35	X36	Y36	Z36	X37	Y37	Z37	X38	Y38	Z38	X39	Y39	Z39	X40	Y40	Z40	X41	Y41	Z41	X42	Y42	Z42	X43	Y43	Z43	X44	Y44	Z44

243	2.01667	147.34604	1472.42700	-64.85048	-140.02850	1370.87793	40.61802	-197.04144	1489.11206	-73.23751	259.55563	1248.94507	-327.01648	61.81097	1290.28613	-504.84277	115.15279	1314.21362	-545.70862	37.42206	1327.02466	-584.32336	-308.68179	1277.62463	-346.08951	-153.84930	1329.77905	-549.77301	-104.75770	1294.07935	-511.53607	-70.73301	1322.19446	-583.85864	125.17220	1031.36633	-155.16127	-26.60549	1012.34937	-40.42181	-67.23366	1018.19879	-42.82322	-173.55110	1030.58655	-161.02711	179.10159	696.71716	-192.07935	166.74887	657.30743	-224.55643	190.33302	659.56683	-167.55020	175.78793	625.06683	-194.47221	171.40712	518.58252	-127.25322	232.52504	378.57635	-102.77090	214.75957	332.43631	-130.44270	222.34688	341.73849	-70.47987	219.21323	300.55707	-93.02818	190.39688	72.20442	-82.21009	143.20607	33.19450	-41.31476	199.97623	31.35324	-238.11926	-219.36748	696.14899	-204.46939	-201.54939	644.47083	-222.92891	-236.24911	661.97388	-173.38492	-227.23227	625.89960	-198.53632	-215.83783	510.28564	-127.40429	-274.57526	316.43631	-87.21233	-261.47748	290.61523	-115.08674	-263.93777	276.79276	-56.45607	-269.93582	246.19322	-78.91602	-241.11176	75.69830	-95.48133	-197.48694	34.72118	-41.59505	-241.14058	32.28510	-241.21838	163.79967	886.34265	-171.61038	-212.04538	898.73804	-168.33559	17.38371	1015.98029	-40.66538	-130.63429	998.87970	-229.48451	93.62330	997.72070	-220.51801
244	2.02500	147.34563	1472.42712	-64.90023	-140.02414	1370.84973	40.56730	-197.08569	1489.09644	-73.27857	259.54407	1248.93958	-327.06958	61.78846	1290.26538	-504.93851	115.12677	1314.19019	-545.78510	37.39164	1327.00415	-584.41620	-308.71191	1277.64514	-346.14139	-153.86072	1329.78931	-549.83240	-104.73008	1294.12048	-511.64542	-70.74252	1322.19470	-583.91119	125.17367	1031.35522	-155.29373	-26.62459	1012.35693	-40.48745	-67.22371	1018.21497	-42.92289	-173.56049	1030.58093	-161.12045	179.09367	696.69067	-192.13094	166.74255	657.28497	-224.61154	190.33626	659.55859	-167.55582	175.79948	625.07043	-194.49471	171.42728	518.59784	-127.28621	232.53438	378.57990	-102.76489	214.74745	332.44101	-130.45045	222.34435	341.74011	-70.51264	219.21564	300.56647	-93.07851	190.41190	72.21370	-82.22301	143.20010	33.21169	-41.31364	200.00771	31.35860	-238.10509	-219.34496	696.11945	-204.51483	-201.56133	644.43610	-222.93423	-236.22954	661.96692	-173.41447	-227.22719	625.89050	-198.59398	-215.82181	510.27103	-127.45900	-274.58585	316.44019	-87.22432	-261.46298	290.61743	-115.09094	-263.93488	276.80194	-56.47486	-269.94586	246.19279	-78.92221	-241.09541	75.69469	-95.47398	-197.50404	34.74640	-41.59208	-241.15311	32.29085	-241.23465	163.82014	886.34515	-171.66789	-212.02158	898.74817	-168.42059	17.38707	1015.98572	-40.75103	-130.64363	998.84674	-229.55829	93.63721	997.70325	-220.60207
245	2.03333	147.34312	1472.42700	-64.90708	-140.02655	1370.83081	40.50718	-197.10323	1489.08838	-73.31458	259.52966	1248.94446	-327.12399	61.78917	1290.21179	-505.01184	115.11155	1314.18469	-545.82562	37.37340	1326.97119	-584.46747	-308.71915	1277.66956	-346.18445	-153.85580	1329.81763	-549.87567	-104.74189	1294.11755	-511.64960	-70.73383	1322.16394	-583.95990	125.18978	1031.35913	-155.39626	-26.64426	1012.35931	-40.55135	-67.21895	1018.21985	-42.97955	-173.56459	1030.58008	-161.18143	179.10059	696.69830	-192.16602	166.77197	657.29266	-224.64476	190.35866	659.56921	-167.60620	175.81671	625.06567	-194.52661	171.43668	518.61462	-127.30640	232.52017	378.57147	-102.81410	214.76918	332.44366	-130.46451	222.35222	341.74542	-70.51935	219.20761	300.55911	-93.07378	190.39525	72.22063	-82.22648	143.20410	33.19508	-41.33219	199.99365	31.36126	-238.11179	-219.34273	696.10529	-204.56552	-201.54848	644.44611	-222.99391	-236.22687	661.95081	-173.46637	-227.22572	625.87817	-198.63550	-215.82053	510.26538	-127.49373	-274.58539	316.43311	-87.27122	-261.47040	290.60855	-115.11570	-263.93881	276.79150	-56.52594	-269.94223	246.18753	-78.93398	-241.08049	75.69604	-95.48764	-197.48828	34.72992	-41.61684	-241.11874	32.28878	-241.22099	163.80080	886.35999	-171.74863	-212.02525	898.73499	-168.47838	17.40098	1015.99060	-40.85816	-130.64276	998.82947	-229.68613	93.61137	997.69043	-220.68465
246	2.04167	147.33887	1472.43518	-64.97741	-140.03551	1370.82251	40.46814	-197.14180	1489.08032	-73.34758	259.52682	1248.92725	-327.17093	61.75735	1290.16882	-505.08640	115.07811	1314.16772	-545.86163	37.35196	1326.94543	-584.52661	-308.74551	1277.67664	-346.24353	-153.87044	1329.84705	-549.87219	-104.74277	1294.12598	-511.67648	-70.74380	1322.16504	-584.02911	125.18194	1031.36121	-155.51414	-26.65891	1012.35803	-40.59674	-67.22952	1018.22540	-43.05627	-173.56204	1030.56641	-161.27580	179.13292	696.69696	-192.18105	166.76114	657.28754	-224.69019	190.37817	659.56647	-167.66588	175.82854	625.07068	-194.53194	171.42917	518.60303	-127.29581	232.52585	378.56622	-102.82957	214.76582	332.43549	-130.48788	222.35040	341.74625	-70.53065	219.22066	300.56744	-93.09476	190.38339	72.21777	-82.21839	143.20229	33.19590	-41.33732	199.99164	31.35944	-238.12349	-219.33392	696.09369	-204.60687	-201.55092	644.42633	-223.03773	-236.21947	661.95502	-173.51776	-227.21722	625.86865	-198.68636	-215.81760	510.26395	-127.52228	-274.60684	316.43900	-87.28300	-261.47708	290.61383	-115.15063	-263.94940	276.80402	-56.53041	-269.95303	246.18944	-78.97809	-241.09944	75.71420	-95.49977	-197.48663	34.72532	-41.62183	-241.11661	32.28311	-241.22409	163.78233	886.33862	-171.79921	-212.00818	898.73425	-168.54555	17.38310	1016.00299	-40.95130	-130.66946	998.82153	-229.76930	93.58710	997.68726	-220.77740
